<svg width="17" height="17" viewBox="0 0 17 17" fill="none" xmlns="http://www.w3.org/2000/svg">
<path d="M14.8334 16.4167H2.16671C1.74678 16.4167 1.34405 16.2499 1.04712 15.9529C0.750189 15.656 0.583374 15.2533 0.583374 14.8333V6.16379C0.596534 5.9021 0.673449 5.64759 0.807425 5.42242C0.9414 5.19724 1.12838 5.00821 1.35208 4.87179L7.68542 1.07179C7.9314 0.924298 8.21283 0.84639 8.49965 0.84639C8.78646 0.84639 9.06789 0.924298 9.31388 1.07179L15.6472 4.87179C16.123 5.15917 16.4151 5.67375 16.4167 6.2295V14.8333C16.4167 15.2533 16.2499 15.656 15.953 15.9529C15.656 16.2499 15.2533 16.4167 14.8334 16.4167ZM2.16671 6.81217V14.8333H14.8334V6.81217L8.50004 11.0341L2.16671 6.81217ZM8.50004 2.4295L3.20854 5.60408L8.50004 9.13175L13.7908 5.60408L8.50004 2.4295Z" fill="#886A68"/>
</svg>
