<svg viewBox="0 0 14 14" fill="none" xmlns="http://www.w3.org/2000/svg">
<path d="M4.25 12.75C2.75 13.25 1.25 12.25 0.75 11.75M4.75 13.25C4.75 13.25 4.25 11.25 5.25 10.25C5.25 10.25 3.25 10.25 1.75 8.75C0.25 7.25 0.75 4.25 1.75 3.25C1.25 1.75 2.25 0.75 2.25 0.75C2.25 0.75 3.75 0.75 4.75 1.75C5.75 1.25 8.25 1.25 9.25 1.75C10.25 0.75 11.75 0.75 11.75 0.75C11.75 0.75 12.75 1.75 12.25 3.25C13.25 4.25 13.75 7.25 12.25 8.75C10.75 10.25 8.75 10.25 8.75 10.25C9.75 11.25 9.25 13.25 9.25 13.25H4.75Z" stroke="#886A68" stroke-width="1.5" stroke-linecap="round" stroke-linejoin="round"/>
</svg>
