<svg width="14" height="14" viewBox="0 0 14 14" fill="none" xmlns="http://www.w3.org/2000/svg">
<path fill-rule="evenodd" clip-rule="evenodd" d="M5.28604 4.97933H7.76204V6.21267C8.11871 5.50333 9.03337 4.866 10.4074 4.866C13.0414 4.866 13.6667 6.278 13.6667 8.86866V13.6667H11V9.45866C11 7.98333 10.6434 7.15133 9.73537 7.15133C8.47604 7.15133 7.95271 8.048 7.95271 9.458V13.6667H5.28604V4.97933ZM0.713374 13.5533H3.38004V4.866H0.713374V13.5533ZM3.76204 2.03333C3.76214 2.25685 3.71781 2.47816 3.63163 2.68439C3.54545 2.89062 3.41914 3.07767 3.26004 3.23467C2.93764 3.55508 2.50125 3.73443 2.04671 3.73333C1.59297 3.73303 1.15758 3.55413 0.834707 3.23533C0.676182 3.07781 0.550298 2.89055 0.46427 2.68429C0.378242 2.47802 0.33376 2.25681 0.333374 2.03333C0.333374 1.582 0.513374 1.15 0.835374 0.831332C1.15796 0.512104 1.59353 0.333133 2.04737 0.333332C2.50204 0.333332 2.93804 0.512666 3.26004 0.831332C3.58137 1.15 3.76204 1.582 3.76204 2.03333Z" fill="#886A68"/>
</svg>
